<svg xmlns="http://www.w3.org/2000/svg" version="1.1" xmlns:xlink="http://www.w3.org/1999/xlink" xmlns:svgjs="http://svgjs.dev/svgjs" width="100%" height="100%" viewBox="0 0 1000 600"><rect width="1000" height="600" x="0" y="0" fill="#f4efea"/><g><circle r="166.66666666666666" cx="255.32525126139322" cy="277.54748364478314" fill="#7d141d" transform="matrix(1.409903031302991,0,0,1.4099030313029912,0,-91.31502183199663)"/><path d="M273.7261813912527 295.26984672269555L273.7261813912527 295.26984672269555Q272.06516617159764 292.1035364602281 265.1356183020992 286.13426301459276L265.1356183020992 286.13426301459276Q247.02017106273624 292.85618398163433 223.66214453633697 287.61360469459805L223.66214453633697 287.61360469459805L223.84381807598675 339.57223703443276L197.68282836641959 334.14798420774673L197.68282836641959 209.13063556589657Q214.68228100507682 204.45903026061671 235.70450487883613 202.97968858061142Q256.7267287525955 201.47439353779902 262.1509815792815 205.2116777820229L262.1509815792815 205.2116777820229Q267.75690794561734 210.2466301666023 279.72140819969513 222.21113042068012Q291.685908453773 234.17563067475794 296.35751375905284 239.59988350144403L296.35751375905284 239.59988350144403Q301.21079260398244 245.56915694707936 295.31937924676845 259.0389522439696Q289.4279658895544 272.4827941780527 275.2314764340651 281.255030806856L275.2314764340651 281.255030806856Q295.03389225589024 289.6639203563597 296.7208608383524 291.5325624784717L296.7208608383524 291.5325624784717Q299.1604769422207 295.0881731830458 300.17265809169805 299.6819183999043Q301.21079260398244 304.24971025395575 301.21079260398244 307.41602051642315Q301.21079260398244 310.6082841416977 300.8214921618758 316.3958840476833Q300.45814508257627 322.1834839536689 300.45814508257627 324.2337996154306L300.45814508257627 324.2337996154306Q300.45814508257627 326.10244173754256 300.17265809169805 329.94353943299484Q299.88717110081984 333.78463712844723 299.88717110081984 335.65327925055914Q299.88717110081984 337.52192137267104 300.45814508257627 340.40274464426034Q301.0291190643327 343.3095212786567 302.32678720468823 344.9964898611188Q303.6244553450437 346.6575050807739 306.24574498856185 348.5261472028858Q308.86703463208 350.39478932499776 312.9676659556034 351.71841082816036L312.9676659556034 351.71841082816036Q298.2261558811648 354.7030475509781 288.41578474007713 346.9429920716521Q278.6054135989894 339.18293659232614 277.6710925379335 324.2337996154306L277.6710925379335 324.2337996154306Q277.6710925379335 323.11780501472487 277.38560554705526 317.3302051087393Q277.10011855617705 311.5426052027537 276.81463156529884 308.92131555923555Q276.5291445744206 306.3000259157174 275.8024504158215 302.0955811409656Q275.04980289441534 297.8911363662137 273.7261813912527 295.26984672269555ZM270.55987112878523 226.33771510701067L270.55987112878523 226.33771510701067Q259.52969193576337 215.85255653293814 223.48047099668722 223.32712502138588L223.48047099668722 223.32712502138588L223.66214453633697 275.6491044405202Q236.74263939112055 275.85673134297707 247.30565805361445 271.833960107875Q257.8427233533012 267.8111888727729 263.44864971963705 261.5564284362593Q269.0545760859728 255.30166799974575 272.06516617159764 248.3721201302473Q275.04980289441534 241.46852562355593 274.4788289126589 235.47329881511348Q273.9338082937096 229.50402536947811 270.55987112878523 226.33771510701067Z " fill="#f4efea" transform="matrix(1.409903031302991,0,0,1.4099030313029912,0,-91.31502183199663)"/><path d="M581.3685992989675 295.26984672269555L581.3685992989675 295.26984672269555Q579.7075840793125 292.1035364602281 572.778036209814 286.13426301459276L572.778036209814 286.13426301459276Q554.662588970451 292.85618398163433 531.3045624440517 287.61360469459805L531.3045624440517 287.61360469459805L531.4862359837016 339.57223703443276L505.32524627413443 334.14798420774673L505.32524627413443 209.13063556589657Q522.3246989127916 204.45903026061671 543.346922786551 202.97968858061142Q564.3691466603102 201.47439353779902 569.7933994869963 205.2116777820229L569.7933994869963 205.2116777820229Q575.3993258533321 210.2466301666023 587.36382610741 222.21113042068012Q599.3283263614878 234.17563067475794 603.9999316667677 239.59988350144403L603.9999316667677 239.59988350144403Q608.8532105116974 245.56915694707936 602.9617971544833 259.0389522439696Q597.0703837972692 272.4827941780527 582.87389434178 281.255030806856L582.87389434178 281.255030806856Q602.676310163605 289.6639203563597 604.3632787460672 291.5325624784717L604.3632787460672 291.5325624784717Q606.8028948499357 295.0881731830458 607.8150759994128 299.6819183999043Q608.8532105116974 304.24971025395575 608.8532105116974 307.41602051642315Q608.8532105116974 310.6082841416977 608.4639100695906 316.3958840476833Q608.1005629902911 322.1834839536689 608.1005629902911 324.2337996154306L608.1005629902911 324.2337996154306Q608.1005629902911 326.10244173754256 607.8150759994128 329.94353943299484Q607.5295890085347 333.78463712844723 607.5295890085347 335.65327925055914Q607.5295890085347 337.52192137267104 608.1005629902911 340.40274464426034Q608.6715369720475 343.3095212786567 609.969205112403 344.9964898611188Q611.2668732527586 346.6575050807739 613.8881628962768 348.5261472028858Q616.5094525397949 350.39478932499776 620.6100838633183 351.71841082816036L620.6100838633183 351.71841082816036Q605.8685737888795 354.7030475509781 596.0582026477919 346.9429920716521Q586.2478315067042 339.18293659232614 585.3135104456483 324.2337996154306L585.3135104456483 324.2337996154306Q585.3135104456483 323.11780501472487 585.02802345477 317.3302051087393Q584.7425364638918 311.5426052027537 584.4570494730136 308.92131555923555Q584.1715624821354 306.3000259157174 583.4448683235364 302.0955811409656Q582.6922208021301 297.8911363662137 581.3685992989675 295.26984672269555ZM578.2022890365001 226.33771510701067L578.2022890365001 226.33771510701067Q567.1721098434782 215.85255653293814 531.1228889044021 223.32712502138588L531.1228889044021 223.32712502138588L531.3045624440517 275.6491044405202Q544.3850572988354 275.85673134297707 554.9480759613293 271.833960107875Q565.485141261016 267.8111888727729 571.0910676273518 261.5564284362593Q576.6969939936877 255.30166799974575 579.7075840793125 248.3721201302473Q582.6922208021301 241.46852562355593 582.1212468203737 235.47329881511348Q581.5762262014243 229.50402536947811 578.2022890365001 226.33771510701067Z " fill="#7d141d" transform="matrix(1.409903031302991,0,0,1.4099030313029912,0,-91.31502183199663)"/></g></svg>